<svg width="24" height="24" viewBox="0 0 24 24" fill="none" xmlns="http://www.w3.org/2000/svg">
<circle cx="2" cy="20" r="1" fill="black"/>
<path d="M8.86552 14.2269C8.43812 13.5932 7.84618 13.1734 7.19619 13.0431C6.5462 12.9127 5.8808 13.0804 5.31969 13.5158C4.75858 13.9513 4.33859 14.626 4.13525 15.4186C3.9319 16.2111 3.95856 17.0696 4.21043 17.8395C4.4623 18.6094 4.92284 19.2403 5.50922 19.6186C6.09561 19.9969 6.76934 20.0978 7.40924 19.9032C8.04915 19.7086 8.61322 19.2313 9 18.5571" stroke="black" stroke-width="2"/>
<path fill-rule="evenodd" clip-rule="evenodd" d="M13.5185 13.8914C13.2223 13.689 12.8106 13.695 12.4966 13.9064L12.4461 13.9405C11.7871 14.3841 11.9085 15.3175 12.6524 15.5278L13.8498 15.8664C16.1103 16.5056 16.3772 19.3918 14.2887 20.6121C13.0066 21.3613 11.3809 21.0803 10.5681 19.9691L9.92107 19.0846L11.4375 18.0636L12.0845 18.9482C12.3703 19.3388 12.9418 19.4376 13.3926 19.1742C14.1269 18.7452 14.033 17.7304 13.2383 17.5057L12.041 17.1671C9.88616 16.5578 9.53472 13.8546 11.4433 12.5696L11.4938 12.5356C12.4605 11.8847 13.7279 11.8661 14.64 12.4893L15.3555 12.9782L14.234 14.3803L13.5185 13.8914Z" fill="black"/>
<path d="M22 13L19.3571 20L17 13" stroke="black" stroke-width="2" stroke-linecap="square" stroke-linejoin="round"/>
</svg>
