<svg width="24" height="24" viewBox="0 0 24 24" fill="none" xmlns="http://www.w3.org/2000/svg">
<path d="M7 17.013L11.413 16.998L21.045 7.45802C21.423 7.08002 21.631 6.57802 21.631 6.04402C21.631 5.51002 21.423 5.00802 21.045 4.63002L19.459 3.04402C18.703 2.28802 17.384 2.29202 16.634 3.04102L7 12.583V17.013ZM18.045 4.45802L19.634 6.04102L18.037 7.62302L16.451 6.03802L18.045 4.45802ZM9 13.417L15.03 7.44402L16.616 9.03002L10.587 15.001L9 15.006V13.417Z" fill="black"/>
<path d="M5.77778 20H18.2222C19.2027 20 20 19.2027 20 18.2222V10.5173L18.2222 12.2951V18.2222H8.58489C8.56178 18.2222 8.53778 18.2311 8.51467 18.2311C8.48533 18.2311 8.456 18.2231 8.42578 18.2222H5.77778V5.77778H11.864L13.6418 4H5.77778C4.79733 4 4 4.79733 4 5.77778V18.2222C4 19.2027 4.79733 20 5.77778 20Z" fill="black"/>
</svg>
