<svg width="24" height="24" viewBox="0 0 24 24" fill="none" xmlns="http://www.w3.org/2000/svg">
<path d="M6 19.99L10 15.99H7L7 3.98999L5 3.98999L5 15.99H2L6 19.99Z" fill="black"/>
<path d="M13.195 13.0194C13.389 13.058 13.5671 13.1532 13.707 13.293L18 17.586V13H20V20C20 20.1978 19.9413 20.391 19.8314 20.5555C19.7215 20.7199 19.5654 20.848 19.3827 20.9237C19.2 20.9993 18.9989 21.0192 18.805 20.9806C18.611 20.942 18.4329 20.8468 18.293 20.707L14 16.414V21H12V14C12 13.8022 12.0587 13.609 12.1686 13.4445C12.2785 13.2801 12.4346 13.152 12.6173 13.0763C12.8 13.0007 13.0011 12.9808 13.195 13.0194Z" fill="black"/>
<path fill-rule="evenodd" clip-rule="evenodd" d="M16.9515 7.6616L18.1226 6.41388V11H20V3.99981C20 3.80206 19.9449 3.60875 19.8417 3.44434C19.7386 3.27993 19.592 3.15178 19.4205 3.07611C19.249 3.00044 19.0603 2.98064 18.8783 3.0192C18.6962 3.05777 18.529 3.15298 18.3977 3.29279L16 5.84718L16.9515 7.6616Z" fill="black"/>
</svg>
