<svg width="24" height="24" viewBox="0 0 24 24" fill="none" xmlns="http://www.w3.org/2000/svg">
<circle cx="2" cy="20" r="1" fill="black"/>
<path d="M5 14L7 17M9 20L7 17M7 17L5 20L9 14" stroke="black" stroke-width="2" stroke-linecap="square" stroke-linejoin="round"/>
<path d="M13 9V18.5714C13 19.3604 13.6396 20 14.4286 20V20" stroke="black" stroke-width="2"/>
<path fill-rule="evenodd" clip-rule="evenodd" d="M19.3131 14.3836C19.0253 14.1953 18.6242 14.2035 18.3172 14.4039L18.2677 14.4362C17.6235 14.8568 17.7373 15.7325 18.4614 15.9256L19.6266 16.2363C21.8265 16.8229 22.073 19.5317 20.032 20.6902C18.779 21.4015 17.1961 21.1474 16.4092 20.1088L15.7829 19.2821L17.2654 18.3142L17.8918 19.1409C18.1685 19.5061 18.725 19.5954 19.1655 19.3453C19.8831 18.938 19.7964 17.9857 19.023 17.7794L17.8578 17.4687C15.7607 16.9095 15.431 14.373 17.2969 13.1548L17.3464 13.1226C18.2915 12.5055 19.5266 12.4804 20.4126 13.0602L21.1075 13.515L20.008 14.8384L19.3131 14.3836Z" fill="black"/>
</svg>
