<svg width="24" height="24" viewBox="0 0 24 24" fill="none" xmlns="http://www.w3.org/2000/svg">
<path d="M21 3H5C4.73478 3 4.48043 3.10536 4.29289 3.29289C4.10536 3.48043 4 3.73478 4 4V6.59C4 7.113 4.213 7.627 4.583 7.997L10 13.414V21C9.99992 21.1705 10.0434 21.3381 10.1264 21.4871C10.2093 21.636 10.329 21.7613 10.474 21.8509C10.619 21.9406 10.7845 21.9917 10.9548 21.9994C11.1251 22.0072 11.2945 21.9712 11.447 21.895L15.447 19.895C15.786 19.725 16 19.379 16 19V13.414L21.417 7.997C21.787 7.627 22 7.113 22 6.59V4C22 3.73478 21.8946 3.48043 21.7071 3.29289C21.5196 3.10536 21.2652 3 21 3ZM14.293 12.293C14.1055 12.4805 14.0001 12.7348 14 13V18.382L12 19.382V13C11.9999 12.7348 11.8945 12.4805 11.707 12.293L6 6.59V5H20.001L20.003 6.583L14.293 12.293Z" fill="black"/>
</svg>
