<svg width="24" height="24" viewBox="0 0 24 24" fill="none" xmlns="http://www.w3.org/2000/svg">
<path d="M11 14L13 17M15 20L13 17M13 17L11 20L15 14" stroke="black" stroke-width="2" stroke-linecap="square" stroke-linejoin="round"/>
<path d="M7.49511 19.8625L7.95646 20.7498L7.95646 20.7498L7.49511 19.8625ZM8.46134 20.4872C8.95134 20.2324 9.142 19.6286 8.8872 19.1386C8.6324 18.6487 8.02863 18.458 7.53863 18.7128L8.46134 20.4872ZM4.30768 12V18.3749H6.30768V12H4.30768ZM7.95646 20.7498L8.46134 20.4872L7.53863 18.7128L7.03376 18.9753L7.95646 20.7498ZM6.9328 21C7.28916 21 7.64029 20.9142 7.95646 20.7498L7.03376 18.9753C7.00257 18.9915 6.96794 19 6.9328 19V21ZM4.30768 18.3749C4.30768 19.8247 5.48298 21 6.9328 21V19C6.58755 19 6.30768 18.7201 6.30768 18.3749H4.30768Z" fill="black"/>
<path d="M7.61538 14.4H3" stroke="black" stroke-width="2"/>
<path d="M21.4951 19.8625L21.9565 20.7498L21.9565 20.7498L21.4951 19.8625ZM22.4613 20.4872C22.9513 20.2324 23.142 19.6286 22.8872 19.1386C22.6324 18.6487 22.0286 18.458 21.5386 18.7128L22.4613 20.4872ZM18.3077 12V18.3749H20.3077V12H18.3077ZM21.9565 20.7498L22.4613 20.4872L21.5386 18.7128L21.0338 18.9753L21.9565 20.7498ZM20.9328 21C21.2892 21 21.6403 20.9142 21.9565 20.7498L21.0338 18.9753C21.0026 18.9915 20.9679 19 20.9328 19V21ZM18.3077 18.3749C18.3077 19.8247 19.483 21 20.9328 21V19C20.5876 19 20.3077 18.7201 20.3077 18.3749H18.3077Z" fill="black"/>
<path d="M21.6154 14.4H17" stroke="black" stroke-width="2"/>
<circle cx="2" cy="20" r="1" fill="black"/>
</svg>
